#!OML:ASF H:\IndianDance\Patient Classification 1\Patient 1\Session 1\dancer.ASF
:FULLY-SPECIFIED
:DEGREES
3156
root 15.3902 14.9894 -7.00554 -171.852 18.7599 184.469
lowerback 7.54042 0.148916 0.932681
upperback -6.73868 1.24923 4.71901
thorax -11.6322 0.954561 4.35419
lowerneck -6.35386 -16.7833 -11.2703
upperneck 6.14046 -23.1105 19.3366
head 6.55264 -10.4903 5.47511
rclavicle -3.13086e-015 2.62396e-014
rhumerus 6.00332 8.83573 -32.0893
rradius 32.8966
rwrist -36.5277
rhand -12.7368 -4.02256
rfingers 7.12502
rthumb 13.3469 -33.5751
lclavicle -3.13086e-015 2.62396e-014
lhumerus -15.505 -24.813 4.18858
lradius 47.1267
lwrist 12.7254
lhand 0.19496 8.81782
lfingers 7.12502
lthumb 25.7771 37.0916
rfemur -30.0723 -11.8993 21.2835
rtibia 50.142
rfoot -18.0577 2.407
rtoes -5.02715
lfemur -35.5621 32.165 -13.3483
ltibia 89.8126
lfoot -17.1262 -2.31965
ltoes -15.8468
3157
root 15.4667 14.9712 -6.99135 -171.896 18.6378 184.653
lowerback 7.41801 0.0522569 0.791203
upperback -6.69267 1.09037 4.73914
thorax -11.496 0.887246 4.48212
lowerneck -6.3393 -16.7781 -11.3441
upperneck 6.28064 -23.1268 19.3844
head 6.61214 -10.4888 5.49476
rclavicle 1.61016e-014 7.55382e-014
rhumerus 6.45323 8.75096 -32.0881
rradius 33.0454
rwrist -37.5965
rhand -11.9512 -4.94811
rfingers 7.12502
rthumb 14.1041 -34.4494
lclavicle 1.61016e-014 7.55382e-014
lhumerus -15.5162 -24.4828 4.23482
lradius 46.2795
lwrist 12.3412
lhand 0.248783 9.00066
lfingers 7.12502
lthumb 25.8286 37.267
rfemur -30.1721 -11.7048 21.7818
rtibia 50.6749
rfoot -18.2109 2.04751
rtoes -5.29276
lfemur -35.0594 31.1669 -14.1027
ltibia 88.0484
lfoot -17.5851 -2.48309
ltoes -17.4745
3158
root 15.5399 14.9532 -6.97844 -171.932 18.4658 184.928
lowerback 7.3067 -0.0710003 0.770566
upperback -6.65359 0.91548 4.76587
thorax -11.3709 0.80363 4.55069
lowerneck -6.29476 -16.7622 -11.3903
upperneck 6.39658 -23.1259 19.4107
head 6.65002 -10.4831 5.51051
rclavicle -3.94588e-014 -2.06736e-014
rhumerus 6.93187 8.71008 -32.0367
rradius 33.2825
rwrist -38.8611
rhand -11.09 -6.12433
rfingers 7.12502
rthumb 14.9338 -35.566
lclavicle -3.94588e-014 -2.06736e-014
lhumerus -15.4941 -24.2364 4.24357
lradius 45.4068
lwrist 11.8791
lhand 0.300842 9.18782
lfingers 7.12502
lthumb 25.8785 37.4469
rfemur -30.2628 -11.5819 22.3597
rtibia 51.2282
rfoot -18.2664 1.74157
rtoes -5.80369
lfemur -34.4341 30.0417 -14.7114
ltibia 85.9436
lfoot -17.9996 -2.62164
ltoes -18.9162
3159
root 15.6091 14.9355 -6.96713 -171.966 18.2618 185.255
lowerback 7.19976 -0.214967 0.843831
upperback -6.61983 0.725892 4.78889
thorax -11.2521 0.705651 4.56356
lowerneck -6.24615 -16.7388 -11.4041
upperneck 6.50072 -23.1116 19.3975
head 6.67202 -10.474 5.51323
rclavicle -8.94531e-016 -1.90833e-014
rhumerus 7.44655 8.73224 -31.9004
rradius 33.6422
rwrist -40.351
rhand -10.1728 -7.60167
rfingers 7.12502
rthumb 15.8173 -36.9755
lclavicle -8.94531e-016 -1.90833e-014
lhumerus -15.4417 -24.0522 4.21241
lradius 44.5092
lwrist 11.3531
lhand 0.360573 9.37827
lfingers 7.12502
lthumb 25.9357 37.6289
rfemur -30.3801 -11.5763 22.9757
rtibia 51.8399
rfoot -18.2198 1.55133
rtoes -6.5281
lfemur -33.6832 28.8043 -15.2056
ltibia 83.5071
lfoot -18.3319 -2.79641
ltoes -19.8898
3160
root 15.6738 14.9179 -6.95763 -172.005 18.0374 185.589
lowerback 7.08444 -0.362886 0.976617
upperback -6.58242 0.53712 4.80419
thorax -11.1239 0.602757 4.53282
lowerneck -6.21893 -16.7211 -11.426
upperneck 6.58267 -23.0981 19.3479
head 6.68655 -10.469 5.50441
rclavicle -3.05134e-014 -1.66979e-014
rhumerus 7.99684 8.80946 -31.6034
rradius 34.1632
rwrist -42.0896
rhand -9.24095 -9.41559
rfingers 7.12502
rthumb 16.7145 -38.716
lclavicle -3.05134e-014 -1.66979e-014
lhumerus -15.3658 -23.9028 4.16263
lradius 43.6121
lwrist 10.7859
lhand 0.432748 9.56781
lfingers 7.12502
lthumb 26.0048 37.8084
rfemur -30.5659 -11.7257 23.5771
rtibia 52.5626
rfoot -18.065 1.55023
rtoes -7.3807
lfemur -32.8067 27.4746 -15.6457
ltibia 80.7459
lfoot -18.5662 -2.92462
ltoes -20.6082
3161
root 15.7341 14.9 -6.95004 -172.056 17.8105 185.876
lowerback 6.95529 -0.512374 1.12428
upperback -6.5456 0.34302 4.79387
thorax -10.988 0.494061 4.4654
lowerneck -6.20294 -16.7008 -11.4374
upperneck 6.63037 -23.0728 19.2538
head 6.68285 -10.4633 5.48245
rclavicle 2.05742e-014 2.3059e-014
rhumerus 8.58832 8.92401 -31.1518
rradius 34.8678
rwrist -44.0802
rhand -8.39149 -11.5725
rfingers 7.12502
rthumb 17.5321 -40.802
lclavicle 2.05742e-014 2.3059e-014
lhumerus -15.2631 -23.7863 4.07788
lradius 42.7085
lwrist 10.1981
lhand 0.51758 9.75552
lfingers 7.12502
lthumb 26.086 37.9841
rfemur -30.861 -12.0439 24.1011
rtibia 53.4474
rfoot -17.7949 1.82185
rtoes -7.99728
lfemur -31.8178 26.1047 -16.1106
ltibia 77.6889
lfoot -18.7426 -2.80286
ltoes -21.4252
3162
root 15.7901 14.8804 -6.94386 -172.126 17.5976 186.089
lowerback 6.81 -0.646006 1.25499
upperback -6.50626 0.162538 4.75782
thorax -10.8414 0.391025 4.37613
lowerneck -6.21189 -16.6897 -11.4737
upperneck 6.64455 -23.0501 19.1154
head 6.6699 -10.4644 5.4482
rclavicle -1.64494e-014 -2.22639e-014
rhumerus 9.21339 9.05891 -30.4844
rradius 35.7917
rwrist -46.3689
rhand -7.76116 -14.0806
rfingers 7.12502
rthumb 18.1386 -43.2549
lclavicle -1.64494e-014 -2.22639e-014
lhumerus -15.1115 -23.6748 3.97935
lradius 41.7963
lwrist 9.60039
lhand 0.623089 9.94148
lfingers 7.12502
lthumb 26.187 38.1551
rfemur -31.3065 -12.5393 24.514
rtibia 54.5447
rfoot -17.3776 2.42666
rtoes -8.21432
lfemur -30.6937 24.7633 -16.626
ltibia 74.4285
lfoot -19.0238 -2.54445
ltoes -21.2984
3163
root 15.8426 14.8601 -6.93871 -172.219 17.415 186.2
lowerback 6.64864 -0.755041 1.33782
upperback -6.46342 0.00211162 4.68876
thorax -10.6832 0.298354 4.27373
lowerneck -6.255 -16.693 -11.5438
upperneck 6.6286 -23.0368 18.9372
head 6.65306 -10.4747 5.40212
rclavicle 2.0773e-014 4.05521e-014
rhumerus 9.88054 9.1304 -29.6164
rradius 36.9252
rwrist -48.9188
rhand -7.47306 -16.8787
rfingers 7.12502
rthumb 18.4158 -46.027
lclavicle 2.0773e-014 4.05521e-014
lhumerus -14.9042 -23.5588 3.85598
lradius 40.8811
lwrist 9.01259
lhand 0.758034 10.14
lfingers 7.12502
lthumb 26.3162 38.3345
rfemur -31.927 -13.1933 24.7869
rtibia 55.8767
rfoot -16.7605 3.3713
rtoes -7.95341
lfemur -29.4562 23.4958 -17.2152
ltibia 71.0921
lfoot -19.3908 -1.83006
ltoes -20.6518
3164
root 15.892 14.8395 -6.93398 -172.331 17.2784 186.201
lowerback 6.47473 -0.83006 1.35758
upperback -6.41885 -0.126416 4.58754
thorax -10.518 0.223097 4.16636
lowerneck -6.34279 -16.7153 -11.6637
upperneck 6.59005 -23.0386 18.7167
head 6.63886 -10.4964 5.34365
rclavicle -7.84206e-014 -8.11041e-014
rhumerus 10.5969 9.05518 -28.5611
rradius 38.2457
rwrist -51.6733
rhand -7.62969 -19.8751
rfingers 7.12502
rthumb 18.2651 -49.0376
lclavicle -7.84206e-014 -8.11041e-014
lhumerus -14.6501 -23.4387 3.69989
lradius 39.9837
lwrist 8.45719
lhand 0.92838 10.3527
lfingers 7.12502
lthumb 26.4793 38.5226
rfemur -32.7419 -13.9762 24.909
rtibia 57.4466
rfoot -15.879 4.65164
rtoes -7.13632
lfemur -28.1322 22.3522 -17.9003
ltibia 67.8137
lfoot -19.9273 -0.596481
ltoes -19.51
3165
root 15.9394 14.8188 -6.92902 -172.455 17.2024 186.117
lowerback 6.30374 -0.885086 1.3268
upperback -6.37621 -0.24018 4.44748
thorax -10.3579 0.155662 4.0432
lowerneck -6.45178 -16.7332 -11.7687
upperneck 6.51069 -23.0247 18.4589
head 6.60599 -10.5141 5.27405
rclavicle -1.20265e-014 3.02153e-014
rhumerus 11.3922 8.83031 -27.3924
rradius 39.7288
rwrist -54.6117
rhand -8.32574 -22.9325
rfingers 7.12502
rthumb 17.5954 -52.1563
lclavicle -1.20265e-014 3.02153e-014
lhumerus -14.3644 -23.3044 3.45436
lradius 39.0952
lwrist 7.92685
lhand 1.13257 10.5772
lfingers 7.12502
lthumb 26.6747 38.7175
rfemur -33.7473 -14.8315 24.9094
rtibia 59.2283
rfoot -14.6494 6.2033
rtoes -5.78669
lfemur -26.7543 21.3886 -18.6518
ltibia 64.715
lfoot -20.7111 1.12025
ltoes -17.7027
